<svg width="25" height="24" viewBox="0 0 25 24" fill="none" xmlns="http://www.w3.org/2000/svg">
<path d="M13.6328 10.5H8.63281M21.6328 21L17.1468 16.506L21.6328 21ZM19.6328 10.5C19.6328 12.7543 18.7373 14.9163 17.1432 16.5104C15.5492 18.1045 13.3872 19 11.1328 19C8.87847 19 6.71646 18.1045 5.12241 16.5104C3.52835 14.9163 2.63281 12.7543 2.63281 10.5C2.63281 8.24566 3.52835 6.08365 5.12241 4.48959C6.71646 2.89553 8.87847 2 11.1328 2C13.3872 2 15.5492 2.89553 17.1432 4.48959C18.7373 6.08365 19.6328 8.24566 19.6328 10.5V10.5Z" stroke="#111111" stroke-width="1.33333" stroke-linecap="round"/>
</svg>
