<svg width="16" height="16" viewBox="0 0 16 16" fill="none" xmlns="http://www.w3.org/2000/svg">
<path d="M15.1875 1.51367H11.9062V0.263672C11.9062 0.177734 11.8359 0.107422 11.75 0.107422H10.6562C10.5703 0.107422 10.5 0.177734 10.5 0.263672V1.51367H5.5V0.263672C5.5 0.177734 5.42969 0.107422 5.34375 0.107422H4.25C4.16406 0.107422 4.09375 0.177734 4.09375 0.263672V1.51367H0.8125C0.466797 1.51367 0.1875 1.79297 0.1875 2.13867V15.1074C0.1875 15.4531 0.466797 15.7324 0.8125 15.7324H15.1875C15.5332 15.7324 15.8125 15.4531 15.8125 15.1074V2.13867C15.8125 1.79297 15.5332 1.51367 15.1875 1.51367ZM14.4062 14.3262H1.59375V6.9043H14.4062V14.3262ZM1.59375 5.57617V2.91992H4.09375V3.85742C4.09375 3.94336 4.16406 4.01367 4.25 4.01367H5.34375C5.42969 4.01367 5.5 3.94336 5.5 3.85742V2.91992H10.5V3.85742C10.5 3.94336 10.5703 4.01367 10.6562 4.01367H11.75C11.8359 4.01367 11.9062 3.94336 11.9062 3.85742V2.91992H14.4062V5.57617H1.59375Z" fill="#0246AB"/>
</svg>
