<svg width="17" height="17" viewBox="0 0 17 17" fill="none" xmlns="http://www.w3.org/2000/svg">
<path d="M7.83301 3.0752H3.16634C2.81272 3.0752 2.47358 3.21567 2.22353 3.46572C1.97348 3.71577 1.83301 4.05491 1.83301 4.40853V13.7419C1.83301 14.0955 1.97348 14.4346 2.22353 14.6847C2.47358 14.9347 2.81272 15.0752 3.16634 15.0752H12.4997C12.8533 15.0752 13.1924 14.9347 13.4425 14.6847C13.6925 14.4346 13.833 14.0955 13.833 13.7419V9.0752" stroke="#A1AFC2" stroke-linecap="round" stroke-linejoin="round"/>
<path d="M12.833 2.07535C13.0982 1.81013 13.4579 1.66113 13.833 1.66113C14.2081 1.66113 14.5678 1.81013 14.833 2.07535C15.0982 2.34056 15.2472 2.70027 15.2472 3.07535C15.2472 3.45042 15.0982 3.81013 14.833 4.07535L8.49967 10.4087L5.83301 11.0753L6.49967 8.40868L12.833 2.07535Z" stroke="#A1AFC2" stroke-linecap="round" stroke-linejoin="round"/>
</svg>
