<svg width="32" height="32" viewBox="0 0 32 32" fill="none" xmlns="http://www.w3.org/2000/svg">
<path fill-rule="evenodd" clip-rule="evenodd" d="M7.86991 31.9858C8.48352 31.9791 9.097 31.9722 9.70964 31.9722C9.70671 31.95 9.7022 31.9293 9.69647 31.91C9.70232 31.929 9.70695 31.9495 9.70988 31.9714C9.8496 31.9714 9.98931 31.9788 10.129 31.9935H20.2223C21.0606 31.9935 21.8987 31.9951 22.7369 31.9967C24.4133 32 26.0898 32.0033 27.7661 31.9935H27.8011C30.134 31.9714 32.006 29.9796 31.992 27.5338V23.2499C31.992 23.2232 31.9938 23.1903 31.9958 23.1557C32.0016 23.0481 32.0083 22.925 31.9641 22.9276C31.8384 22.935 31.6401 22.9821 31.5703 23.0553C31.0346 23.4297 30.5151 23.8386 29.9956 24.2475C28.9566 25.0653 27.9178 25.8831 26.749 26.425C22.2005 28.0337 18.1776 28.1099 13.9078 27.0285C13.6742 26.9394 13.5629 26.9494 13.3654 26.9671C13.2383 26.9786 13.0753 26.9933 12.8206 26.9867C12.7896 26.9879 12.7574 26.9889 12.7239 26.99C12.3027 27.0037 11.6911 27.0237 10.9603 27.4899C9.24891 28.0391 6.92786 28.1099 5.72845 27.9219C5.73393 27.9349 5.73722 27.946 5.73991 27.9563C5.73588 27.9476 5.73198 27.9388 5.7282 27.93C5.7115 27.9103 5.69053 27.8929 5.67005 27.8761C5.60507 27.8223 5.54667 27.7741 5.65834 27.6737C5.6909 27.6517 5.72357 27.6289 5.75612 27.6062C5.82135 27.5606 5.88657 27.515 5.95167 27.4759C6.86678 26.8535 7.72593 26.1724 8.29162 25.1691C9.06079 24.1915 8.70431 23.8102 8.02462 23.0834L7.99902 23.0561C4.68777 19.5136 3.71341 15.7549 4.0588 10.6989C4.47087 7.92349 5.68626 5.53613 7.43955 3.45648C8.5012 2.19687 9.76547 1.17904 11.1485 0.329528C11.1685 0.316184 11.1918 0.305351 11.2156 0.294253C11.2831 0.262677 11.3548 0.229384 11.365 0.131789C11.3732 0.0547381 11.2552 0.0292792 11.2132 0.0292792C10.425 0.0292792 9.64697 0.021894 8.87255 0.014535C7.33421 -6.39113e-05 5.81013 -0.0145447 4.24911 0.0292918C2.00694 0.095205 -0.0365187 1.71411 0.000495222 4.59889C0.00980966 9.69597 0.00671313 14.7897 0.00360425 19.8825C0.00205591 22.4285 0.000495222 24.9741 0.000495222 27.5199C0.000495222 29.8852 1.7258 31.8697 3.98199 31.965C5.27613 32.0147 6.57357 32.0002 7.86991 31.9858ZM5.81537 28.0879C5.8211 28.0963 5.82695 28.1046 5.83293 28.1131C5.95533 28.2269 6.07664 28.3418 6.19734 28.4577C6.08054 28.3401 5.95972 28.2226 5.83329 28.105C5.82683 28.099 5.82086 28.0933 5.81537 28.0879ZM9.40557 31.616C9.36205 31.5866 9.31999 31.5554 9.28378 31.5175C9.28061 31.517 9.2772 31.5162 9.27366 31.5152C9.27695 31.5187 9.28024 31.5221 9.28354 31.5255C9.31975 31.5599 9.36193 31.5886 9.40557 31.616Z" fill="white"/>
<path d="M10.7996 15.5845C11.8543 15.5845 12.8462 15.5771 13.831 15.5845C14.3828 15.5917 14.6832 15.8334 14.739 16.2947C14.802 16.8733 14.4806 17.2614 13.8799 17.2687C12.7484 17.2833 11.6237 17.2761 10.4922 17.2761C10.1639 17.2761 9.84263 17.2907 9.51431 17.2687C9.10918 17.2467 8.711 17.1589 8.51545 16.7195C8.31989 16.28 8.45961 15.8846 8.72502 15.5258C9.80069 14.0906 10.8833 12.6479 11.9661 11.2126C12.0288 11.1247 12.0917 11.0369 12.1547 10.9563C12.0848 10.8318 11.987 10.8904 11.9031 10.8831C11.1488 10.8758 10.3875 10.8831 9.63306 10.8758C9.45847 10.8758 9.28377 10.8538 9.11613 10.8172C8.71807 10.722 8.47351 10.3046 8.56434 9.89447C8.62725 9.61623 8.83682 9.38926 9.10223 9.32333C9.26987 9.27933 9.44445 9.2574 9.61904 9.2574C10.8625 9.25014 12.1127 9.25014 13.356 9.2574C13.5796 9.25014 13.7961 9.27933 14.0127 9.33799C14.4877 9.50644 14.6902 9.96779 14.5016 10.4511C14.3339 10.8684 14.0685 11.2273 13.8031 11.5861C12.8881 12.8091 11.973 14.0247 11.058 15.2329C10.9812 15.3281 10.9114 15.4233 10.7996 15.5845Z" fill="white"/>
<path d="M18.902 11.7329C19.0696 11.5059 19.2442 11.2936 19.5306 11.235C20.0824 11.1178 20.5993 11.4913 20.6063 12.0772C20.6272 13.5417 20.6203 15.0063 20.6063 16.471C20.6063 16.8517 20.3688 17.1886 20.0265 17.2984C19.6772 17.4375 19.2791 17.3277 19.0486 17.0128C18.9299 16.859 18.881 16.8298 18.7134 16.9689C18.0777 17.5108 17.3583 17.606 16.5829 17.3424C15.3396 16.9176 14.8297 15.8997 14.69 14.6622C14.5433 13.322 14.9694 12.1797 16.1149 11.4766C17.0648 10.8835 18.0288 10.9348 18.902 11.7329ZM16.4292 14.4059C16.4431 14.7281 16.5409 15.0357 16.7226 15.292C17.0998 15.8192 17.8192 15.929 18.3292 15.5336C18.413 15.4677 18.4898 15.3871 18.5596 15.292C18.9509 14.7354 18.9509 13.8201 18.5596 13.2635C18.3641 12.9778 18.0567 12.8094 17.7284 12.8021C16.9601 12.7509 16.4223 13.3732 16.4292 14.4059ZM23.7426 14.4497C23.6866 12.5677 24.8671 11.1618 26.5435 11.1105C28.3247 11.052 29.624 12.3042 29.6798 14.1349C29.7357 15.9876 28.653 17.2984 26.9836 17.4741C25.1605 17.6646 23.7147 16.2806 23.7426 14.4497ZM25.4957 14.274C25.4818 14.6402 25.5866 14.9991 25.7961 15.2992C26.1803 15.8265 26.8997 15.929 27.4028 15.5189C27.4796 15.4604 27.5424 15.3871 27.6053 15.3139C28.0104 14.7573 28.0104 13.8201 27.6122 13.2635C27.4167 12.9852 27.1093 12.8094 26.781 12.8021C26.0267 12.7581 25.4957 13.3587 25.4957 14.274ZM23.1279 12.9925C23.1279 14.1276 23.1348 15.2626 23.1279 16.3976C23.1348 16.9176 22.7437 17.3497 22.2477 17.3643C22.164 17.3643 22.0732 17.3571 21.9893 17.335C21.6401 17.2399 21.3746 16.8517 21.3746 16.3904V10.5686C21.3746 10.2244 21.3676 9.88751 21.3746 9.54335C21.3816 8.97948 21.7239 8.61339 22.2408 8.61339C22.7716 8.60599 23.1279 8.97222 23.1279 9.55802C23.1348 10.7004 23.1279 11.8501 23.1279 12.9925Z" fill="white"/>
</svg>
