<svg width="16" height="16" viewBox="0 0 16 16" fill="none" xmlns="http://www.w3.org/2000/svg">
<g clip-path="url(#clip0_17_210)">
<path d="M14.1853 5.14906L14.185 5.14873C12.4931 3.46353 10.3541 2.56577 7.99996 2.56577C5.64579 2.56577 3.50686 3.46353 1.81492 5.14873L1.81459 5.14906C0.568757 6.40152 -0.00693073 7.64897 -0.0470476 7.74796C-0.0819655 7.82743 -0.1 7.91329 -0.1 8.0001C-0.1 8.08691 -0.0819656 8.17277 -0.0470477 8.25224C-0.00693088 8.35122 0.568757 9.59867 1.81459 10.8511L1.81492 10.8515C3.50686 12.5367 5.64579 13.4344 7.99996 13.4344C10.3541 13.4344 12.4931 12.5367 14.185 10.8515L14.1853 10.8511C15.431 9.5988 16.0067 8.35147 16.047 8.25226C16.0819 8.17279 16.0999 8.08692 16.0999 8.0001C16.0999 7.91327 16.0819 7.8274 16.047 7.74793C16.0067 7.64872 15.431 6.40139 14.1853 5.14906ZM2.74286 9.97627L2.74247 9.9759C2.15064 9.39303 1.64656 8.72744 1.24593 7.99999C1.64606 7.27023 2.15018 6.60241 2.74256 6.01754L2.7427 6.01741C4.20461 4.56867 5.97312 3.83264 7.99996 3.83264C10.0268 3.83264 11.7953 4.56867 13.2572 6.01741L13.2574 6.01754C13.8498 6.6025 14.354 7.27043 14.7542 8.00032C14.2328 8.95748 12.1636 12.1676 7.99996 12.1676C5.97315 12.1676 4.20472 11.4316 2.74286 9.97627ZM7.99996 4.6995C7.34717 4.6995 6.70903 4.89308 6.16625 5.25575C5.62347 5.61843 5.20043 6.13391 4.95061 6.73701C4.7008 7.34012 4.63543 8.00376 4.76279 8.64401C4.89014 9.28427 5.20449 9.87238 5.66609 10.334C6.12769 10.7956 6.7158 11.1099 7.35605 11.2373C7.9963 11.3646 8.65994 11.2993 9.26305 11.0495C9.86615 10.7996 10.3816 10.3766 10.7443 9.83381C11.107 9.29103 11.3006 8.65289 11.3006 8.0001C11.3006 7.12473 10.9528 6.28521 10.3338 5.66622C9.71486 5.04724 8.87534 4.6995 7.99996 4.6995ZM7.99981 10.0338C7.59763 10.0338 7.20449 9.91452 6.87008 9.69108C6.53564 9.46761 6.27497 9.14999 6.12104 8.77837C5.96711 8.40676 5.92684 7.99784 6.00531 7.60334C6.08378 7.20883 6.27748 6.84646 6.5619 6.56203C6.84632 6.27761 7.2087 6.08392 7.6032 6.00544C7.99771 5.92697 8.40662 5.96725 8.77824 6.12118C9.14985 6.2751 9.46748 6.53577 9.69095 6.87022C9.91442 7.20466 10.0337 7.59786 10.0337 8.0001C10.0319 8.53893 9.81711 9.0552 9.43609 9.43622C9.05503 9.81728 8.5387 10.0321 7.99981 10.0338Z" fill="#28D6BD" stroke="#28D6BD" stroke-width="0.2"/>
</g>
<defs>
<clipPath id="clip0_17_210">
<rect width="16" height="16" fill="white"/>
</clipPath>
</defs>
</svg>
